<svg id="visual" viewBox="0 0 900 450" width="900" height="450" xmlns="http://www.w3.org/2000/svg" xmlns:xlink="http://www.w3.org/1999/xlink" version="1.1"><rect x="0" y="0" width="900" height="450" fill="#023047"></rect><g transform="translate(852.6225989269245 454.36685931590864)"><path d="M220.2 -309.9C289.8 -298 353.7 -244.3 398.3 -173.9C443 -103.4 468.5 -16.2 454.4 63.7C440.4 143.6 386.8 216.2 318.6 252.3C250.4 288.5 167.4 288.2 97.8 288C28.2 287.8 -28.2 287.8 -106 295.1C-183.9 302.4 -283.2 317 -328.2 277.5C-373.2 238 -363.8 144.5 -360.2 61.7C-356.6 -21 -358.9 -93 -322.6 -136.9C-286.4 -180.9 -211.6 -196.9 -151.4 -213.1C-91.2 -229.3 -45.6 -245.7 14.9 -268.8C75.3 -291.9 150.7 -321.8 220.2 -309.9" fill="#FB8500"></path></g></svg>