<svg id="visual" viewBox="0 0 900 600" width="900" height="600" xmlns="http://www.w3.org/2000/svg" xmlns:xlink="http://www.w3.org/1999/xlink" version="1.1"><rect x="0" y="0" width="900" height="600" fill="#023047"></rect><g transform="translate(826.3884917020235 584.7438863308647)"><path d="M306 -434.5C396.6 -418 469.8 -333 527.3 -233.2C584.7 -133.3 626.4 -18.6 596.8 75.4C567.1 169.5 466.1 242.9 375.7 298.4C285.3 353.8 205.6 391.4 120.3 422.1C34.9 452.9 -56.1 476.9 -146 465.1C-235.8 453.3 -324.6 405.8 -355.8 330.3C-387 254.8 -360.5 151.4 -383.5 49.8C-406.5 -51.9 -478.8 -151.8 -454.4 -208.5C-430 -265.1 -308.8 -278.5 -216.9 -294.4C-125.1 -310.3 -62.5 -328.6 22.6 -363.8C107.8 -399 215.5 -451 306 -434.5" fill="#FB8500"></path></g></svg>